<svg width="24" height="25" viewBox="0 0 24 25" fill="none" xmlns="http://www.w3.org/2000/svg">
<path d="M4.65625 4.06055C5.51562 3.48242 6.44531 3.04102 7.44531 2.73633C8.44531 2.43164 9.46094 2.2793 10.4922 2.2793C11.1953 2.2793 11.8828 2.34961 12.5547 2.49023C13.2266 2.61523 13.8789 2.81055 14.5117 3.07617C15.1445 3.3418 15.75 3.66211 16.3281 4.03711C16.8906 4.42773 17.4219 4.86523 17.9219 5.34961C18.4062 5.84961 18.8438 6.38086 19.2344 6.94336C19.6094 7.52148 19.9297 8.12695 20.1953 8.75977C20.4609 9.39258 20.6562 10.0449 20.7812 10.7168C20.9219 11.3887 20.9922 12.0762 20.9922 12.7793C20.9922 13.8105 20.8398 14.8262 20.5352 15.8262C20.2305 16.8262 19.7891 17.7559 19.2109 18.6152C18.6484 19.4746 17.9648 20.2324 17.1602 20.8887C16.3555 21.5449 15.4688 22.0762 14.5 22.4824C13.5469 22.873 12.5547 23.1191 11.5234 23.2207C10.4922 23.3223 9.46875 23.2715 8.45312 23.0684C7.42188 22.8652 6.44922 22.5215 5.53516 22.0371C4.62109 21.5527 3.79688 20.9434 3.0625 20.209C2.32812 19.4746 1.71875 18.6504 1.23438 17.7363C0.75 16.8223 0.40625 15.8496 0.203125 14.8184C0 13.8027 -0.0507812 12.7793 0.0507812 11.748C0.152344 10.7168 0.398438 9.72461 0.789062 8.77148C1.19531 7.80273 1.72656 6.91602 2.38281 6.11133C3.03906 5.30664 3.79688 4.62305 4.65625 4.06055ZM5.5 20.2559C6.23438 20.7559 7.02734 21.1348 7.87891 21.3926C8.73047 21.6504 9.60156 21.7793 10.4922 21.7793C11.6797 21.7793 12.8281 21.5527 13.9375 21.0996C15.0469 20.6465 16.0234 19.998 16.8672 19.1543C17.7109 18.3105 18.3594 17.334 18.8125 16.2246C19.2656 15.1152 19.4922 13.9668 19.4922 12.7793C19.4922 11.8887 19.3633 11.0176 19.1055 10.166C18.8477 9.31445 18.4688 8.52148 17.9688 7.78711C17.4844 7.03711 16.8984 6.38086 16.2109 5.81836C15.5234 5.25586 14.7656 4.80273 13.9375 4.45898C13.1094 4.11523 12.2539 3.90039 11.3711 3.81445C10.4883 3.72852 9.60938 3.77148 8.73438 3.94336C7.85938 4.11523 7.03125 4.41211 6.25 4.83398C5.46875 5.25586 4.75781 5.7793 4.11719 6.4043C3.49219 7.04492 2.96875 7.75586 2.54688 8.53711C2.125 9.31836 1.82812 10.1465 1.65625 11.0215C1.48437 11.8965 1.44141 12.7754 1.52734 13.6582C1.61328 14.541 1.82812 15.3965 2.17188 16.2246C2.51562 17.0527 2.96875 17.8105 3.53125 18.498C4.09375 19.1855 4.75 19.7715 5.5 20.2559ZM5.24219 13.084L8.99219 16.834L15.7422 10.084L14.6875 9.0293L8.99219 14.7246L6.29688 12.0293L5.24219 13.084Z" fill="url(#paint0_linear_1_1210)"/>
<defs>
<linearGradient id="paint0_linear_1_1210" x1="1.94455e-07" y1="2.2793" x2="24.5441" y2="17.5701" gradientUnits="userSpaceOnUse">
<stop stop-color="#2600FC"/>
<stop offset="1" stop-color="#FF00EA"/>
</linearGradient>
</defs>
</svg>
