<svg width="17" height="16" viewBox="0 0 17 16" fill="none" xmlns="http://www.w3.org/2000/svg">
<path d="M8.50002 5.35002C10.0438 5.35002 11.35 6.65627 11.35 8.20002C11.35 9.77346 10.0438 11.05 8.50002 11.05C6.92659 11.05 5.65002 9.77346 5.65002 8.20002C5.65002 6.65627 6.92659 5.35002 8.50002 5.35002ZM15.8031 7.75471C16.1891 7.93284 16.1891 8.4969 15.8031 8.67502L12.9828 10.0703L13.9922 13.0688C14.111 13.4547 13.725 13.8406 13.3391 13.7219L10.3406 12.7125L8.94534 15.5328C8.76721 15.9188 8.20315 15.9188 8.02502 15.5328L6.62971 12.7125L3.63127 13.7219C3.24534 13.8406 2.8594 13.4547 2.97815 13.0688L3.98752 10.0703L1.16721 8.67502C0.781274 8.4969 0.781274 7.93284 1.16721 7.75471L3.98752 6.3594L2.97815 3.36096C2.8594 2.97502 3.24534 2.58909 3.63127 2.70784L6.62971 3.71721L8.02502 0.8969C8.20315 0.510962 8.76721 0.510962 8.94534 0.8969L10.3406 3.71721L13.3391 2.70784C13.725 2.58909 14.111 2.97502 13.9922 3.36096L12.9828 6.3594L15.8031 7.75471ZM11.1719 10.9016C12.6563 9.41721 12.6563 7.01252 11.1719 5.52815C9.68752 4.04377 7.28284 4.04377 5.79846 5.52815C4.31409 7.01252 4.31409 9.41721 5.79846 10.9016C7.28284 12.386 9.68752 12.386 11.1719 10.9016Z" fill="white"/>
</svg>
