<svg width="62" height="63" viewBox="0 0 62 63" fill="none" xmlns="http://www.w3.org/2000/svg">
<rect x="13.86" y="0.669922" width="50" height="50" rx="25" transform="rotate(16 13.86 0.669922)" fill="url(#paint0_linear_1_384)"/>
<path d="M30.8323 33.8143C29.2488 33.3536 27.9967 32.5723 27.0758 31.4704C26.1611 30.3702 25.607 28.9978 25.4137 27.3531C25.2265 25.7102 25.4319 23.8573 26.0301 21.7945C26.6203 19.7362 27.4275 18.0691 28.4516 16.7935C29.4818 15.5196 30.6737 14.6677 32.0271 14.2379C33.3884 13.8037 34.8587 13.813 36.4378 14.2658C38.0169 14.7186 39.2656 15.489 40.1838 16.5768C41.1082 17.6664 41.6697 19.0244 41.8684 20.6507C42.0688 22.2708 41.8708 24.1092 41.2744 26.1658C40.6806 28.2365 39.866 29.918 38.8305 31.2103C37.8011 32.5044 36.607 33.3756 35.2483 33.8238C33.8896 34.2721 32.4176 34.2689 30.8323 33.8143ZM31.7811 30.5055C32.8625 30.8156 33.8818 30.5194 34.8388 29.6168C35.7958 28.7143 36.5831 27.1745 37.2006 24.9977C37.6112 23.566 37.8055 22.3317 37.7837 21.2947C37.768 20.2595 37.5615 19.4257 37.1644 18.7931C36.7734 18.1623 36.2185 17.7439 35.4996 17.5377C34.4243 17.2294 33.4099 17.5204 32.4564 18.4107C31.5029 19.3009 30.7157 20.8174 30.0946 22.96C29.6788 24.4101 29.4761 25.662 29.4865 26.7156C29.5048 27.7649 29.7117 28.6088 30.1071 29.2475C30.5042 29.8801 31.0622 30.2994 31.7811 30.5055Z" fill="white"/>
<path d="M27.2751 47.7845L27.4654 47.1209C27.6098 46.6171 27.8491 46.1847 28.1831 45.8239C28.5223 45.4601 28.9332 45.21 29.4156 45.0735C29.9034 44.9341 30.4442 44.9495 31.0382 45.1198C31.6403 45.2925 32.1098 45.5645 32.4466 45.936C32.7875 46.3086 33.0013 46.7378 33.0881 47.2237C33.1801 47.7067 33.1533 48.2022 33.0076 48.7102L32.8174 49.3737C32.6729 49.8776 32.4331 50.312 32.0979 50.6769C31.7639 51.0378 31.3536 51.2858 30.8671 51.4212C30.3794 51.5606 29.8385 51.5452 29.2446 51.3749C28.6424 51.2022 28.1735 50.9281 27.8379 50.5526C27.5011 50.1811 27.2867 49.7539 27.1946 49.2709C27.1038 48.7838 27.1306 48.2884 27.2751 47.7845ZM29.2534 47.6336L29.0631 48.2972C28.9797 48.5881 28.9707 48.8825 29.0359 49.1805C29.1053 49.4797 29.3264 49.6827 29.6991 49.7896C30.0719 49.8965 30.3623 49.8423 30.5703 49.6271C30.7824 49.4131 30.9313 49.1565 31.017 48.8575L31.2073 48.1939C31.2931 47.8949 31.3074 47.5975 31.2503 47.3019C31.1932 47.0062 30.9722 46.8032 30.5871 46.6928C30.2185 46.5871 29.9254 46.6427 29.7081 46.8597C29.4907 47.0766 29.3391 47.3346 29.2534 47.6336ZM22.8822 38.7315L23.0725 38.0679C23.2182 37.56 23.46 37.1262 23.7981 36.7665C24.1374 36.4028 24.5482 36.1526 25.0307 36.0161C25.5172 35.8808 26.0534 35.8971 26.6392 36.0651C27.2454 36.2389 27.7169 36.5115 28.0537 36.883C28.3905 37.2544 28.6044 37.6836 28.6952 38.1707C28.7872 38.6537 28.7604 39.1492 28.6148 39.6571L28.4245 40.3207C28.2788 40.8287 28.037 41.2625 27.6989 41.6221C27.3649 41.983 26.9546 42.2311 26.4681 42.3664C25.9868 42.4988 25.4471 42.4793 24.8491 42.3078C24.251 42.1363 23.7815 41.8643 23.4406 41.4917C23.105 41.1161 22.8906 40.6889 22.7974 40.21C22.7095 39.7282 22.7377 39.2354 22.8822 38.7315ZM24.8728 38.5842L24.6825 39.2477C24.5968 39.5468 24.5871 39.8432 24.6536 40.1372C24.7241 40.4322 24.9396 40.6315 25.3001 40.7348C25.677 40.8429 25.9694 40.7893 26.1774 40.5741C26.3895 40.3601 26.5384 40.1035 26.6242 39.8045L26.8145 39.1409C26.9002 38.8419 26.9145 38.5445 26.8575 38.2489C26.8004 37.9532 26.5773 37.7496 26.1881 37.638C25.8235 37.5335 25.534 37.5923 25.3196 37.8146C25.1051 38.0368 24.9562 38.2933 24.8728 38.5842ZM20.9518 48.5248L33.2115 38.4218L34.8213 38.8834L22.5616 48.9864L20.9518 48.5248Z" fill="white"/>
<defs>
<linearGradient id="paint0_linear_1_384" x1="13.86" y1="50.6699" x2="41.9414" y2="-9.55088" gradientUnits="userSpaceOnUse">
<stop stop-color="#2600FC"/>
<stop offset="1" stop-color="#FF00EA"/>
</linearGradient>
</defs>
</svg>
