<svg width="146" height="41" viewBox="0 0 146 41" fill="none" xmlns="http://www.w3.org/2000/svg">
<path d="M2.30372 32.8564V9.81644H7.19972L20.6717 25.8804V9.81644H25.3437V32.8564H20.4477L6.91172 16.7284V32.8564H2.30372ZM28.9927 32.8564V9.81644H50.2407V14.4564H33.6647V19.0004H47.0087V23.6724H33.6647V32.8564H28.9927ZM60.4302 32.8564V14.4564H51.2142V9.81644H74.2542V14.4564H65.0702V32.8564H60.4302ZM76.6795 32.8564V9.81644H81.2875V19.0004H95.5915V9.81644H100.199V32.8564H95.5915V23.6724H81.2875V32.8564H76.6795ZM108.282 32.8564C107.472 32.8564 106.714 32.6538 106.01 32.2484C105.328 31.8218 104.784 31.2671 104.378 30.5844C103.973 29.9018 103.77 29.1551 103.77 28.3444V14.2964H108.314V28.1204C108.314 28.1631 108.336 28.2058 108.378 28.2484C108.421 28.2911 108.464 28.3124 108.506 28.3124H117.85C117.893 28.3124 117.936 28.2911 117.978 28.2484C118.021 28.2058 118.042 28.1631 118.042 28.1204V14.2964H122.586V28.3444C122.586 29.1551 122.384 29.9018 121.978 30.5844C121.573 31.2671 121.029 31.8218 120.346 32.2484C119.664 32.6538 118.906 32.8564 118.074 32.8564H108.282ZM125.271 32.8564V8.21644H129.815V14.2964H139.575C140.407 14.2964 141.164 14.5098 141.847 14.9364C142.53 15.3418 143.074 15.8858 143.479 16.5684C143.884 17.2511 144.087 17.9978 144.087 18.8084V28.3444C144.087 29.1551 143.884 29.9018 143.479 30.5844C143.074 31.2671 142.53 31.8218 141.847 32.2484C141.164 32.6538 140.407 32.8564 139.575 32.8564H125.271ZM130.007 28.3124H139.351C139.415 28.3124 139.458 28.2911 139.479 28.2484C139.522 28.2058 139.543 28.1631 139.543 28.1204V19.0324C139.543 18.9898 139.522 18.9471 139.479 18.9044C139.458 18.8618 139.415 18.8404 139.351 18.8404H130.007C129.964 18.8404 129.922 18.8618 129.879 18.9044C129.836 18.9471 129.815 18.9898 129.815 19.0324V28.1204C129.815 28.1631 129.836 28.2058 129.879 28.2484C129.922 28.2911 129.964 28.3124 130.007 28.3124Z" fill="url(#paint0_linear_1_675)"/>
<defs>
<linearGradient id="paint0_linear_1_675" x1="0.19922" y1="40.8564" x2="38.7776" y2="-46.2671" gradientUnits="userSpaceOnUse">
<stop stop-color="#2600FC"/>
<stop offset="1" stop-color="#FF00EA"/>
</linearGradient>
</defs>
</svg>
